<svg xmlns="http://www.w3.org/2000/svg" width="269" height="54" viewBox="0 0 269 54" fill="none">
  <g>
    <svg x="0" y="0" width="55" height="54" viewBox="0 0 58 54" fill="none">
      <path d="M57.4853 5.66013V48.3399C57.4853 51.463 54.7849 54 51.4607 54H6.02454C2.70036 54 0 51.463 0 48.3399V5.66013C0 2.52097 2.70036 0 6.02454 0H51.4522C54.7849 0 57.4853 2.52899 57.4853 5.66013Z" fill="#4D4E50"/>
      <path d="M13.0403 24.4228V37.8385H8.51978V17.2934L13.0403 24.4228Z" fill="white"/>
      <path d="M27.593 16.1615V37.8386H22.5255L8.79297 16.1615H13.6212L23.175 31.1989V16.1615H27.593Z" fill="white"/>
      <path d="M30.7808 16.1615V20.0393H37.5146V37.8386H42.2659V20.0393H48.9655V16.1615H30.7808Z" fill="white"/>
      <path d="M13.0403 24.4229L8.51978 17.2935V16.1615H8.79323L13.0403 22.8733V24.4229Z" fill="#D82129"/>
    </svg>
  </g>
  <g>
   <svg xmlns="http://www.w3.org/2000/svg" width="200" height="36" viewBox="0 0 211 36" x="62" y="9" fill="none">
  <path d="M31.5625 0.144508V35.8555H23.2136L7.53268 11.1276L7.66087 35.8555H0.19214L0.140869 0.144508H8.54105L24.2818 24.9126L24.0938 0.144508H31.5625Z" fill="#4D4E50"/>
  <path d="M55.3445 17.3738C54.7719 16.6352 54.0114 16.0732 53.0799 15.6718C52.1399 15.2784 51.1401 15.0776 50.0634 15.0776C48.9525 15.0776 47.927 15.2784 46.987 15.6718C46.047 16.0652 45.2865 16.6352 44.6883 17.3738C44.0986 18.1124 43.7568 18.9474 43.6799 19.8867H56.3101C56.2417 18.9474 55.917 18.1124 55.3445 17.3738ZM56.8057 34.6994C54.6779 35.4701 52.5245 35.8555 50.3454 35.8555C47.363 35.8555 44.7994 35.2614 42.6801 34.0732C40.5523 32.885 38.9287 31.2792 37.8007 29.248C36.6727 27.2168 36.1086 24.9206 36.1086 22.3676C36.1086 19.7422 36.6641 17.422 37.775 15.4068C38.8859 13.3916 40.4839 11.81 42.569 10.6619C44.6541 9.51386 47.1494 8.93581 50.0634 8.93581C52.9346 8.93581 55.4214 9.50583 57.5321 10.6379C59.6343 11.7699 61.2323 13.3595 62.3261 15.4148C63.4199 17.4621 63.9668 19.7824 63.9668 22.3756C63.9668 23.3149 63.9497 24.0295 63.907 24.5353H43.5774C43.6885 25.6111 44.0474 26.5424 44.637 27.3131C45.2267 28.0839 46.0128 28.678 46.987 29.0955C47.9612 29.513 49.0806 29.7137 50.3454 29.7137C51.7639 29.7137 53.0714 29.4889 54.2763 29.0393C55.4812 28.5897 56.4896 27.9715 57.2928 27.1767L61.5997 31.7048C60.5315 32.9251 58.9335 33.9206 56.8057 34.6994Z" fill="#4D4E50"/>
  <path d="M87.5183 21.7654L83.2797 27.7467L77.5201 35.8555H68.4961L79.0412 21.7654L69.2823 8.93581H78.3063L83.2797 15.8564L87.5183 21.7654Z" fill="#4D4E50"/>
  <path d="M97.2685 8.93581L87.5181 21.7654L83.2795 15.8564L88.253 8.93581H97.2685Z" fill="#4D4E50"/>
  <path d="M98.0632 35.8555H89.0392L83.2795 27.7467L87.5181 21.7654L98.0632 35.8555Z" fill="#4D4E50"/>
  <path d="M104.455 33.3827C102.84 31.7369 102.011 29.6254 101.969 27.0723L101.909 22.5683C101.909 21.0509 101.917 19.8065 101.934 18.843C101.951 17.8796 101.96 16.6593 101.96 15.174L101.9 5.61199L109.6 0.16061V8.94384H115.043V15.174H109.6C109.6 19.108 109.6 22.4238 109.6 25.1294C109.642 26.43 109.882 27.4255 110.343 28.1321C110.796 28.8386 111.497 29.2079 112.445 29.248C113.308 29.248 114.06 29.1356 114.693 28.9189L115.932 35.2052C114.864 35.6468 113.231 35.8716 111.018 35.8716C108.267 35.8555 106.079 35.0286 104.455 33.3827Z" fill="#4D4E50"/>
  <path d="M139.722 17.3738C139.15 16.6352 138.389 16.0732 137.458 15.6718C136.518 15.2784 135.518 15.0776 134.441 15.0776C133.33 15.0776 132.305 15.2784 131.365 15.6718C130.425 16.0652 129.664 16.6352 129.066 17.3738C128.477 18.1124 128.135 18.9474 128.058 19.8867H140.697C140.628 18.9474 140.303 18.1124 139.722 17.3738ZM141.192 34.6994C139.064 35.4701 136.911 35.8555 134.732 35.8555C131.741 35.8555 129.194 35.2614 127.067 34.0732C124.939 32.885 123.315 31.2792 122.187 29.248C121.059 27.2168 120.495 24.9206 120.495 22.3676C120.495 19.7422 121.051 17.422 122.161 15.4068C123.272 13.3916 124.87 11.81 126.955 10.6619C129.041 9.51386 131.536 8.93581 134.45 8.93581C137.321 8.93581 139.808 9.50583 141.919 10.6379C144.021 11.7699 145.619 13.3595 146.713 15.4148C147.806 17.4621 148.353 19.7824 148.353 22.3756C148.353 23.3149 148.336 24.0295 148.293 24.5353H127.964C128.075 25.6111 128.434 26.5424 129.023 27.3131C129.613 28.0839 130.399 28.678 131.382 29.0955C132.356 29.513 133.476 29.7137 134.74 29.7137C136.159 29.7137 137.466 29.4889 138.671 29.0393C139.876 28.5897 140.885 27.9715 141.688 27.1767L145.995 31.7048C144.909 32.9251 143.311 33.9206 141.192 34.6994Z" fill="#4D4E50"/>
  <path d="M152.805 35.8555V11.2159C154.309 10.3969 156.189 9.81086 158.437 9.45761C160.693 9.10435 162.863 8.92772 164.965 8.92772C170.426 8.92772 174.357 10.0116 176.775 12.1873C179.185 14.363 180.416 17.2132 180.458 20.7457C180.501 25.7636 180.501 30.7975 180.458 35.8474H172.682C172.759 31.2069 172.759 26.5584 172.682 21.9099C172.639 19.7582 172.058 18.1766 170.93 17.173C169.802 16.1695 168.05 15.6717 165.683 15.6717C164.615 15.6717 163.59 15.752 162.598 15.9206C161.607 16.0892 160.898 16.2819 160.462 16.5067V35.8474H152.805V35.8555Z" fill="#4D4E50"/>
  <path d="M187.568 33.3827C185.953 31.7369 185.124 29.6254 185.082 27.0723L185.022 22.5683C185.022 21.0509 185.03 19.8065 185.047 18.843C185.064 17.8796 185.073 16.6593 185.073 15.174L185.013 5.61199L192.713 0.16061V8.94384H198.156V15.174H192.713C192.713 19.108 192.713 22.4238 192.713 25.1294C192.755 26.43 192.995 27.4255 193.456 28.1321C193.909 28.8386 194.61 29.2079 195.558 29.248C196.421 29.248 197.173 29.1356 197.806 28.9189L199.045 35.2052C197.977 35.6468 196.344 35.8716 194.131 35.8716C191.38 35.8555 189.183 35.0286 187.568 33.3827Z" fill="#4D4E50"/>
  <path d="M211 35.8555H203.6V11.8983L211 8.93581V35.8555Z" fill="#4D4E50"/>
  <path d="M211 0.152523H203.6V6.81622H211V0.152523Z" fill="#D82129"/>
</svg>
  </g>
</svg>
